<?xml version="1.0" standalone="no"?><!DOCTYPE svg PUBLIC "-//W3C//DTD SVG 1.1//EN" "http://www.w3.org/Graphics/SVG/1.1/DTD/svg11.dtd"><svg t="1652064627531" class="icon" viewBox="0 0 1024 1024" version="1.1" xmlns="http://www.w3.org/2000/svg" p-id="5883" xmlns:xlink="http://www.w3.org/1999/xlink" width="64" height="64"><defs><style type="text/css"></style></defs><path d="M609.659259 3.792593c-14.127407 0.474074-16.402963 0.948148-25.6 5.451851-11.70963 5.736296-18.725926 7.537778-32.237037 8.343704-14.554074 0.853333-17.588148 1.706667-45.037037 12.610371-10.145185 4.02963-21.048889 8.296296-24.177778 9.481481-7.537778 2.797037-10.761481 4.551111-17.303703 9.386667-2.986667 2.228148-6.637037 4.598519-8.05926 5.357037-3.081481 1.564444-5.12 4.02963-9.481481 11.235555-1.848889 3.081481-4.171852 6.162963-5.831111 7.774815-6.494815 6.257778-19.768889 25.742222-24.936296 36.503704-1.659259 3.460741-1.706667 3.792593-1.706667 8.817778 0.047407 5.546667 0.142222 6.162963 4.740741 21.57037 2.986667 10.145185 3.318519 12.420741 3.318518 21.807407-0.047407 12.373333-1.374815 18.10963-8.248889 35.318519-2.322963 5.736296-4.456296 11.282963-4.788148 12.278518-1.659259 5.12-19.437037 18.725926-31.099259 23.751111-16.260741 7.063704-28.539259 4.02963-48.497778-11.994074-21.807407-17.493333-53.096296-61.108148-67.745185-94.435555-3.365926-7.632593-5.12-12.8-7.205926-21.096296-0.853333-3.413333-1.706667-6.305185-1.848889-6.494815-0.18963-0.18963-4.645926 2.986667-10.002963 7.063703-14.933333 11.33037-24.651852 19.626667-24.651852 20.954075 0 1.943704 11.377778 14.364444 158.293334 173.084444l48.071111 51.911111-6.352593 0.284445c-3.508148 0.18963-22.518519 0.474074-42.24 0.663703l-35.934815 0.379259v3.982223c0 5.072593 0.711111 6.637037 3.223704 7.016296 3.982222 0.663704 4.693333 0.853333 7.205926 2.085926 3.318519 1.564444 7.774815 5.688889 8.675555 8.011852 1.042963 2.607407 1.706667 14.554074 2.228149 40.865185 0.853333 42.714074 0.331852 111.265185-0.948149 127.762963-0.616296 7.205926-1.374815 9.244444-4.598518 12.041481-1.137778 1.042963-4.361481 2.986667-7.063704 4.314074-5.878519 2.891852-8.722963 5.30963-8.722963 7.490371 0 2.56 2.275556 2.939259 21.333334 3.413333 13.368889 0.331852 174.411852-0.284444 174.791111-0.663704 0.237037-0.18963 10.097778-46.743704 11.282963-53.143703 0.663704-3.65037 1.374815-7.917037 1.517037-9.528889 0.237037-2.654815 0.18963-2.939259-0.853334-3.697778-1.659259-1.137778-3.318519-0.948148-5.783703 0.711111-2.844444 1.848889-5.451852 4.977778-9.813334 11.567408-5.688889 8.580741-8.865185 12.468148-15.36 18.962963-11.70963 11.662222-21.665185 17.256296-37.973333 21.333333-10.192593 2.56-19.437037 3.697778-30.103704 3.697778-7.632593 0-10.097778-0.18963-13.985185-0.995556-5.214815-1.09037-10.287407-3.413333-11.709629-5.309629-1.46963-1.991111-1.848889-11.662222-2.133334-50.678519l-0.237037-36.645926 1.801482 0.284445c1.042963 0.142222 3.365926 0.379259 5.167407 0.521481 17.256296 1.517037 26.405926 4.503704 33.374815 10.951111 6.21037 5.736296 9.528889 11.757037 13.700741 24.841482 3.460741 10.856296 4.93037 13.274074 8.011851 13.274074 3.413333 0 3.460741-0.805926 3.934815-41.955556 0.379259-34.37037 0.948148-48.782222 1.848889-49.682963 0.948148-0.948148 22.091852 21.380741 100.788148 106.334815 24.50963 26.453333 63.81037 68.835556 87.371852 94.198518l42.761482 46.08v17.92c0 9.860741-0.237037 19.484444-0.474074 21.428149-0.474074 3.508148-1.422222 5.736296-2.465186 5.736296-2.085926 0-64.805926-66.512593-87.182222-92.491852-10.24-11.851852-14.648889-17.967407-14.648889-20.337778 0-2.607407 2.939259-4.788148 9.481482-6.874074 2.228148-0.711111 4.835556-1.706667 5.831111-2.228148 1.659259-0.805926 1.754074-0.995556 1.754074-3.223704 0-2.702222 0.047407-2.702222-6.068148-3.413333-5.973333-0.663704-92.254815-1.09037-99.555556-0.426667-6.874074 0.568889-8.343704 1.137778-8.533333 3.176297-0.284444 2.74963 2.275556 4.740741 9.339259 7.30074 9.434074 3.460741 23.22963 17.635556 122.311111 125.62963 53.902222 58.69037 66.74963 72.106667 74.050371 77.226667 3.460741 2.465185 5.30963 3.034074 11.045926 3.555555l2.797037 0.237037-0.284445-13.368889c-1.46963-65.564444-1.46963-97.042963 0.047408-98.56 0.805926-0.805926 12.562963 11.235556 36.645925 37.30963 11.045926 11.994074 27.591111 29.819259 36.693334 39.585185 47.644444 51.057778 70.921481 76.183704 94.814815 102.257778 17.540741 19.152593 15.834074 18.441481 15.976296 7.016296 0.047407-7.49037-0.521481-11.093333-3.223704-19.2-6.115556-18.394074-8.248889-43.52-5.594074-66.37037 1.896296-16.355556 6.162963-28.918519 12.847408-37.451852 1.517037-1.991111 2.275556-3.555556 2.986666-6.4 2.607407-10.145185 1.185185-30.814815-2.844444-40.817778-0.758519-1.896296-2.74963-5.30963-4.456297-7.585185-1.706667-2.322963-4.408889-6.731852-5.973333-9.765926-4.361481-8.391111-7.49037-11.994074-17.777778-20.29037-9.671111-7.774815-12.752593-11.946667-12.8-17.066667 0-4.882963 3.745185-10.24 8.580741-12.373333 1.09037-0.521481 4.361481-1.232593 7.205926-1.611852 5.404444-0.711111 6.779259-1.137778 9.718519-3.034074 4.171852-2.702222 4.219259-5.546667 0.142222-21.522963-5.451852-21.380741-6.874074-24.888889-12.136297-29.819259-3.745185-3.555556-5.546667-6.826667-7.774814-14.127408-2.322963-7.68-2.797037-10.808889-2.891852-18.962963-0.142222-10.145185-0.568889-11.899259-7.348148-29.155555-2.038519-5.214815-4.503704-12.041481-5.451852-15.170371-1.991111-6.447407-3.034074-8.485926-10.42963-20.385185-2.891852-4.693333-6.21037-10.192593-7.395555-12.278518-3.697778-6.542222-12.136296-13.463704-22.850371-18.773334-5.925926-2.939259-10.145185-4.02963-18.109629-4.693333-7.537778-0.663704-30.814815-1.46963-41.623704-1.46963-7.822222 0-7.964444 0-9.102222-1.185185-0.995556-0.948148-1.185185-1.611852-1.185185-3.887407 0.047407-7.86963 3.887407-16.877037 10.856296-25.268148 4.645926-5.641481 12.8-12.088889 18.820741-14.933334 7.395556-3.508148 35.413333-9.14963 53.048888-10.666666 17.493333-1.517037 18.204444-1.754074 31.905186-11.757037 8.106667-5.925926 15.928889-10.761481 20.48-12.752593 4.693333-1.991111 9.102222-4.598519 15.644444-9.102222 3.271111-2.275556 6.684444-4.598519 7.585185-5.12 4.219259-2.512593 11.70963-5.925926 17.540741-7.964445 15.644444-5.499259 26.074074-11.70963 36.124444-21.475555 3.84-3.745185 5.30963-6.826667 7.727408-16.308148 2.939259-11.52 4.788148-16.023704 8.96-21.475556 4.219259-5.499259 9.102222-16.260741 10.24-22.471111 0.474074-2.702222 0.426667-3.128889-0.521482-5.072593-2.322963-4.835556-14.459259-14.980741-23.04-19.294814-1.232593-0.663704-3.887407-1.517037-5.831111-1.943704-5.878519-1.327407-8.865185-4.124444-22.992592-21.617778-11.757037-14.554074-12.61037-15.265185-19.294815-15.786667-4.551111-0.379259-7.537778-1.517037-11.425185-4.314074-3.887407-2.702222-6.968889-6.162963-9.434074-10.429629-3.128889-5.404444-6.637037-10.666667-10.050371-14.980741-3.934815-4.93037-6.4-9.671111-6.779259-12.942222-0.142222-1.374815-0.758519-3.318519-1.327407-4.361482-1.09037-1.896296-1.754074-2.417778-10.192593-7.395555-2.228148-1.327407-6.21037-3.982222-8.865185-5.925926-5.878519-4.266667-9.671111-6.115556-14.648889-7.111111-6.542222-1.28-15.407407-0.18963-29.108148 3.65037-4.551111 1.28-6.257778 1.517037-10.42963 1.564444-4.456296 0-5.594074-0.18963-10.666667-1.801481-6.731852-2.085926-12.61037-4.788148-16.023703-7.253333-1.374815-0.995556-6.257778-5.451852-10.856297-9.955556-4.788148-4.645926-8.96-8.296296-9.671111-8.485926-0.853333-0.237037-2.417778 0.18963-5.309629 1.46963-6.020741 2.56-27.875556 13.795556-34.228148 17.540741-8.154074 4.835556-11.140741 6.305185-13.605926 6.637037-8.343704 1.137778-18.631111 6.115556-30.957037 14.933333-7.822222 5.641481-9.860741 7.86963-15.312593 16.82963-8.248889 13.558519-23.656296 36.740741-26.358519 39.727407-3.081481 3.318519-4.124444 3.887407-7.822222 4.314074-1.517037 0.18963-4.124444 0.853333-5.736296 1.46963-4.740741 1.896296-8.533333 1.422222-10.382222-1.374815-1.848889-2.844444-0.284444-6.447407 7.158518-16.877037 10.619259-14.838519 22.471111-42.666667 28.634074-66.986667 2.275556-9.007407 4.551111-15.976296 7.300741-22.376296 3.365926-7.774815 4.93037-14.032593 5.925926-23.22963 0.758519-7.537778 2.56-16.687407 4.551111-23.514074 2.085926-7.205926 4.124444-17.208889 5.12-25.078518 0.711111-5.783704 2.275556-24.746667 2.038519-24.888889-4.219259-2.133333-11.282963-5.072593-13.605926-5.641482-1.706667-0.379259-5.641481-0.948148-8.770371-1.185185-7.822222-0.663704-38.447407-0.995556-51.674074-0.521481zM437.76 368.545185c9.908148 6.257778 32.426667 30.767407 37.973333 41.339259 1.28 2.37037 1.46963 3.081481 1.185186 4.930371-1.185185 7.917037-8.580741 23.466667-13.558519 28.397037-6.542222 6.542222-23.751111 11.899259-38.21037 11.899259h-3.081482l0.237037-35.934815c0.142222-22.660741 0.426667-37.214815 0.758519-39.442963 0.805926-5.30963 1.801481-8.343704 3.413333-10.145185 2.465185-2.844444 7.68-3.318519 11.282963-1.042963z" p-id="5884" fill="#ffffff"></path><path d="M119.703704 354.133333c-14.554074 0.379259-17.066667 0.995556-17.777778 4.266667-0.426667 1.991111 0.758519 3.84 3.697778 5.783704 3.176296 2.133333 7.348148 5.641481 17.066666 14.269629l7.585186 6.731852-0.331852 36.02963c-0.142222 19.816296-0.426667 57.315556-0.616297 83.342222l-0.284444 47.36-3.128889 2.465185c-1.706667 1.374815-3.887407 2.939259-4.788148 3.460741-2.180741 1.327407-7.86963 3.223704-12.420741 4.171852-4.977778 1.042963-6.731852 2.275556-6.921481 4.835555-0.18963 2.654815 0.900741 3.318519 6.589629 3.934815 5.783704 0.616296 55.277037 0.616296 61.060741 0 5.404444-0.568889 6.684444-1.28 6.684445-3.602963 0-3.413333-1.327407-4.361481-8.106667-5.878518-8.011852-1.754074-11.851852-4.219259-17.777778-11.425185l-2.607407-3.223704 0.189629-66.74963c0.142222-51.152593 0.331852-67.271111 0.758519-69.025185 0.568889-2.133333 1.137778-2.607407 2.228148-1.848889 0.474074 0.331852 17.682963 18.868148 62.53037 67.413333 71.537778 77.416296 81.445926 87.893333 86.660741 91.448889 3.128889 2.133333 4.93037 2.797037 8.817778 3.271111l3.365926 0.37926v-68.503704c0.047407-69.925926 0.521481-108.98963 1.422222-118.328889 0.663704-6.637037 2.038519-12.231111 3.602963-14.601481 1.46963-2.228148 3.65037-3.271111 9.197037-4.361482 2.228148-0.474074 4.645926-1.137778 5.357037-1.517037 1.848889-0.948148 2.702222-3.271111 2.702222-7.253333v-3.318519H266.097778l0.331852 3.176297c0.568889 5.594074 1.611852 6.58963 7.917037 7.68 3.982222 0.663704 6.58963 1.801481 9.671111 4.124444 5.30963 4.02963 8.628148 9.386667 9.765926 15.597037 0.616296 3.65037 0.663704 68.598519 0 87.277037l-0.331852 10.002963-21.902222-23.751111C259.555556 444.681481 237.795556 421.214815 223.288889 405.57037c-14.506667-15.644444-31.241481-33.706667-37.167408-40.154074l-10.714074-11.709629-22.044444 0.047407c-12.136296 0.047407-27.259259 0.18963-33.659259 0.379259zM44.562963 571.780741c-5.262222 0.616296-10.856296 2.085926-14.317037 3.745185-5.831111 2.891852-9.718519 8.865185-9.718519 15.028148-0.047407 3.84 1.042963 5.688889 4.124445 7.253333 2.180741 1.09037 2.844444 1.185185 9.244444 1.185186 5.831111 0 7.158519-0.142222 8.722963-0.900741l1.801482-0.900741-0.237037-2.465185c-0.331852-3.176296-1.943704-6.4-3.176297-6.4-0.521481 0-0.948148 0.18963-0.948148 0.379259 0 1.232593-6.352593 2.891852-10.903703 2.939259-7.727407 0-7.537778-3.982222 0.379259-7.68 8.154074-3.84 20.906667-6.020741 30.056296-5.12 5.641481 0.568889 7.348148 1.327407 7.727408 3.508149 0.663704 3.365926-1.801481 6.115556-8.722963 9.813333-3.697778 1.991111-3.223704 2.512593 1.848888 2.133333 5.973333-0.426667 8.817778-1.09037 10.334815-2.417778 1.232593-1.042963 1.28-1.374815 1.422222-6.068148 0.142222-4.171852 0.047407-5.30963-0.758518-7.111111-2.56-5.783704-12.942222-8.438519-26.88-6.921481zM348.302222 587.425185c-5.783704 0.521481-6.921481 1.09037-7.111111 3.460741-0.18963 2.465185 1.564444 4.314074 5.12 5.357037 8.817778 2.512593 13.937778 7.68 15.17037 15.312593 1.137778 6.921481 1.517037 35.223704 1.28 92.444444-0.237037 57.647407-0.474074 65.706667-1.991111 74.619259-1.374815 8.011852-3.413333 10.808889-9.481481 13.131852-6.779259 2.607407-9.197037 4.503704-9.908148 7.774815-0.426667 1.896296 0.426667 2.986667 2.797037 3.65037 1.327407 0.379259 16.734815 0.616296 52.100741 0.711111l50.204444 0.18963-0.331852-2.939259c-0.616296-5.357037-1.991111-6.684444-7.585185-7.490371-8.438519-1.185185-14.08-6.731852-15.502222-15.217777-0.331852-1.943704-0.616296-16.308148-0.758519-38.77926l-0.237037-35.65037 8.485926 8.865185c12.61037 13.274074 18.725926 19.911111 42.334815 45.653334 11.851852 12.894815 26.121481 28.444444 31.715555 34.465185l10.145186 11.045926h34.18074c18.820741 0 35.982222-0.18963 38.162963-0.474074 5.025185-0.568889 6.21037-1.28 6.210371-3.745186s-1.422222-4.124444-4.930371-5.736296c-5.878519-2.654815-13.321481-9.813333-44.8-43.33037-31.857778-33.896296-30.198519-32.094815-36.977777-39.86963-5.973333-6.826667-9.671111-11.851852-9.386667-12.752593 0.094815-0.284444 2.607407-1.801481 5.594074-3.365925 10.24-5.404444 13.416296-7.585185 19.768889-13.700741 10.666667-10.287407 17.066667-23.751111 17.92-37.736296 0.379259-6.162963-0.616296-10.666667-4.02963-17.777778-4.882963-10.24-10.002963-16.355556-18.441481-21.902222-17.019259-11.188148-32.094815-14.791111-67.887408-16.260741-13.748148-0.568889-95.478519-0.521481-101.831111 0.047407z m104.722963 13.226667c5.783704 1.185185 9.576296 3.081481 12.894815 6.494815 8.96 9.197037 13.653333 24.462222 12.98963 42.429629-0.331852 8.248889-0.948148 11.899259-3.176297 18.29926-4.171852 12.041481-13.558519 18.631111-31.478518 22.186666-7.585185 1.46963-17.682963 2.417778-20.053334 1.801482l-1.801481-0.426667 0.047407-36.266667c0.047407-50.251852 0.331852-52.906667 6.352593-54.518518 5.925926-1.611852 16.45037-1.564444 24.225185 0zM56.414815 600.177778c-10.998519 0.948148-20.859259 4.693333-26.595556 10.05037-6.068148 5.688889-6.731852 11.282963-1.706666 14.601482 5.831111 3.84 17.445926 4.598519 28.871111 1.896296 6.4-1.517037 13.084444-5.357037 17.967407-10.287407 4.645926-4.740741 4.835556-6.162963 1.564445-10.856297-2.275556-3.223704-3.413333-4.219259-5.641482-4.835555-2.465185-0.711111-9.623704-0.995556-14.459259-0.568889z m14.554074 8.059259c3.84 1.801481 1.09037 5.025185-6.921482 8.106667-8.059259 3.128889-19.01037 5.167407-28.017777 5.214815-5.404444 0.047407-6.874074-0.426667-6.874074-2.133334 0-3.365926 7.016296-7.063704 18.725925-9.813333 9.434074-2.228148 19.958519-2.844444 23.087408-1.374815zM75.946667 625.303704c-7.063704 3.697778-33.09037 11.52-40.391111 12.136296-4.835556 0.426667-4.977778 0.474074-4.977778 2.275556 0 2.417778 3.413333 8.77037 6.305185 11.757037 2.797037 2.939259 6.4 4.977778 9.481481 5.404444 1.28 0.18963 4.124444-0.18963 8.05926-0.995556 12.468148-2.56 18.868148-5.499259 24.604444-11.188148 3.792593-3.697778 5.546667-6.684444 5.594074-9.197037 0-2.986667-2.654815-10.856296-3.982222-11.709629-0.758519-0.521481-0.663704-0.568889-4.693333 1.517037z m3.46074 9.528889c0 2.417778-1.374815 3.745185-7.016296 6.731851-9.528889 4.93037-27.685926 9.765926-32.758518 8.628149-1.137778-0.237037-1.46963-0.568889-1.46963-1.46963 0-0.948148 0.663704-1.422222 4.408889-3.223704 8.817778-4.219259 32.426667-12.420741 36.029629-12.562963 0.616296-0.047407 0.805926 0.331852 0.805926 1.896297zM82.251852 651.804444c-7.537778 2.797037-15.644444 7.205926-15.644445 8.485926 0 0.900741 2.512593 0.521481 10.903704-1.611851 7.632593-1.991111 11.140741-3.508148 12.088889-5.404445 0.616296-1.232593 0.616296-1.422222-0.047407-2.085926-1.042963-1.09037-3.271111-0.900741-7.300741 0.616296zM83.816296 662.044444c-7.253333 1.943704-14.601481 7.917037-19.01037 15.312593-3.365926 5.641481-8.059259 9.528889-11.52 9.576296-1.754074 0-3.745185-1.706667-3.745185-3.176296 0-1.422222 1.232593-3.223704 4.835555-7.158518 2.891852-3.128889 3.271111-3.887407 1.943704-3.887408-1.327407 0-9.197037 2.74963-10.903704 3.792593-1.943704 1.137778-2.038519 2.891852-0.568889 6.968889 1.801481 4.788148 5.688889 7.727407 10.145186 7.727407 7.111111-0.047407 16.545185-6.257778 21.902222-14.411852 4.408889-6.684444 9.197037-10.761481 12.752592-10.856296 5.499259-0.142222 3.128889 6.637037-4.029629 11.52-2.180741 1.517037-1.327407 1.659259 3.223703 0.521481 4.788148-1.185185 8.201481-2.654815 9.528889-4.077037l1.090371-1.137777-1.374815-0.284445c-2.512593-0.568889-2.654815-0.663704-2.322963-1.564444 1.46963-3.318519 0.047407-6.21037-3.982222-8.296297-2.891852-1.422222-4.314074-1.517037-7.964445-0.568889zM100.077037 690.773333c-2.512593 1.896296-13.226667 7.253333-21.522963 10.808889-8.533333 3.65037-15.691852 6.068148-19.105185 6.447408-1.46963 0.142222-3.081481 0.568889-3.508148 0.90074-0.758519 0.568889-0.758519 0.711111 0.142222 2.74963 1.185185 2.654815 4.693333 7.964444 5.30963 7.964444 0.237037 0 0.616296-0.284444 0.805926-0.616296 1.896296-3.128889 23.940741-13.985185 37.072592-18.299259 3.887407-1.28 6.257778-1.28 7.348148-0.094815 0.805926 0.900741 0.805926 0.995556 0.047408 2.322963-0.900741 1.46963-4.645926 4.124444-9.955556 6.968889-6.637037 3.602963-11.188148 7.253333-9.671111 7.774815 0.331852 0.094815 2.038519-0.521481 3.792593-1.422222 1.801481-0.853333 3.365926-1.422222 3.555555-1.28 0.758519 0.758519-3.128889 5.831111-14.364444 18.82074-8.391111 9.671111-8.77037 10.42963-4.314074 8.722963 4.551111-1.754074 17.493333-7.86963 20.432592-9.623703 3.745185-2.275556 4.171852-2.986667 2.702222-4.171852l-1.137777-0.900741 1.232592-2.085926c0.663704-1.137778 2.37037-3.365926 3.745185-4.93037 4.124444-4.693333 8.011852-9.718519 8.96-11.614815 0.853333-1.706667 0.900741-1.943704 0.18963-4.361482-1.517037-5.072593-7.537778-15.17037-9.197037-15.407407-0.379259-0.047407-1.564444 0.521481-2.56 1.327407zM114.962963 718.032593c-0.805926 0.948148-1.848889 2.465185-2.275556 3.365926-1.042963 2.180741-0.474074 2.512593 4.551112 2.512592 3.081481 0 3.887407-0.142222 3.887407-0.711111 0-1.659259-3.081481-6.874074-4.02963-6.874074-0.331852 0-1.28 0.758519-2.133333 1.706667z" p-id="5885" fill="#ffffff"></path><path d="M77.985185 719.597037c-1.422222 0.474074-3.697778 1.374815-5.025185 2.085926-3.697778 1.896296-6.4 2.417778-8.485926 1.754074-2.465185-0.805926-2.891852-0.18963-1.896296 2.797037 1.659259 5.12 4.977778 6.921481 6.115555 3.413333 0.521481-1.706667 1.848889-2.74963 9.955556-7.727407 5.025185-3.128889 4.788148-4.077037-0.663704-2.322963zM121.837037 739.271111c-7.205926 5.546667-29.25037 18.678519-34.607407 20.574815-3.223704 1.137778-3.555556 1.374815-3.555556 2.74963 0 2.038519 5.925926 12.894815 9.339259 17.161481 2.702222 3.318519 3.034074 3.318519 6.210371 0.379259 7.158519-6.542222 31.715556-20.717037 37.973333-21.902222 1.327407-0.284444 1.801481-0.142222 2.512593 0.758519 0.474074 0.568889 0.853333 1.46963 0.853333 1.943703 0 1.232593-2.74963 3.745185-9.007407 8.248889-12.515556 9.007407-25.647407 16.971852-29.534815 17.967408-1.327407 0.331852-2.512593 0.853333-2.607408 1.137777-0.284444 0.900741 2.844444 6.731852 4.266667 7.917037 1.801481 1.517037 3.602963 1.564444 4.124444 0.094815 0.616296-1.517037 4.456296-4.93037 10.951112-9.576296 8.154074-5.878519 20.811852-14.08 24.888888-16.118519 2.180741-1.137778 3.555556-2.133333 3.555556-2.56-0.047407-4.266667-18.488889-32.047407-21.096296-31.762963-0.284444 0.047407-2.180741 1.374815-4.266667 2.986667z m9.908148 6.257778c0.995556 0.995556 0.948148 1.422222-0.379259 3.745185-1.422222 2.417778-3.934815 4.503704-9.386667 7.774815-4.882963 2.891852-6.4 3.176296-7.395555 1.422222-1.137778-1.896296-0.379259-3.65037 2.939259-6.826667 5.167407-4.977778 12.325926-8.059259 14.222222-6.115555z m-22.091852 13.084444c1.611852 1.611852-0.616296 5.736296-4.693333 8.722963-3.460741 2.512593-10.192593 5.878519-11.804444 5.878519-0.948148 0-1.659259-0.379259-2.180741-1.137778-0.663704-1.09037-0.663704-1.327407 0.094815-2.939259 0.900741-1.848889 6.4-6.542222 9.86074-8.391111 4.93037-2.607407 7.585185-3.271111 8.722963-2.133334zM145.303704 776.817778c-7.016296 3.271111-12.041481 9.197037-14.933334 17.73037-2.939259 8.675556-7.774815 14.696296-11.757037 14.696296-0.663704 0-1.422222-0.331852-1.801481-0.758518-0.995556-1.185185-0.663704-4.882963 0.711111-7.774815 1.28-2.74963 1.564444-4.266667 0.758518-4.266667-1.611852 0-6.826667 3.602963-8.106666 5.546667-0.853333 1.232593-0.853333 1.327407 0 2.275556 0.521481 0.521481 1.611852 2.275556 2.465185 3.934814 1.896296 3.65037 3.318519 4.551111 7.300741 4.503704 3.65037-0.047407 6.779259-1.28 11.33037-4.408889 5.594074-3.887407 7.111111-6.21037 9.576296-14.885926 2.654815-9.197037 7.205926-15.454815 11.235556-15.454814 3.508148 0 2.417778 6.542222-1.848889 11.567407-1.943704 2.228148-2.180741 3.84-0.521481 3.365926 1.943704-0.568889 7.395556-4.551111 8.391111-6.162963 0.521481-0.853333 0.948148-2.275556 0.948148-3.128889-0.047407-2.228148-1.896296-5.688889-3.792593-6.968889-2.275556-1.517037-6.447407-1.46963-9.955555 0.18963zM167.205926 799.051852c-1.706667 3.745185-21.428148 21.380741-30.340741 27.164444-1.611852 1.042963-3.697778 2.038519-4.598518 2.180741-2.275556 0.426667-2.512593 1.327407-0.948148 3.745185 3.413333 5.12 13.558519 16.45037 15.881481 17.635556 1.517037 0.805926 1.896296 0.568889 1.896296-1.185185 0-0.900741 0.853333-2.180741 2.797037-4.314074 5.831111-6.4 25.647407-23.134815 30.530371-25.78963 2.891852-1.611852 4.598519-1.374815 4.598518 0.663704 0 2.56-3.792593 7.205926-15.597037 19.057777-13.037037 13.037037-16.355556 15.928889-17.445926 15.075556-0.426667-0.426667-0.805926-0.426667-1.137778-0.094815-0.758519 0.758519 0.948148 3.65037 4.740741 8.059259 3.84 4.408889 7.253333 7.253333 8.817778 7.253334 1.185185 0 10.097778-6.731852 9.244444-7.016297-0.284444-0.094815-2.56 0.18963-5.072592 0.616297-7.86963 1.422222-10.24-0.047407-7.727408-4.930371 1.137778-2.228148 5.167407-6.684444 8.201482-9.149629 4.314074-3.413333 4.788148-2.038519 1.28 3.887407-1.28 2.228148-2.37037 4.219259-2.37037 4.408889 0 0.900741 3.176296-1.991111 8.96-8.106667 3.365926-3.555556 6.731852-7.253333 7.49037-8.154074l1.327407-1.659259-1.469629 1.042963c-1.943704 1.374815-5.688889 2.417778-6.352593 1.754074-0.758519-0.758519 1.991111-4.503704 6.068148-8.296296 4.408889-4.02963 5.878519-4.93037 7.205926-4.21926 1.327407 0.711111 1.896296 1.991111 1.896296 4.21926 0 2.512593-0.663704 4.077037-2.891851 6.968889-0.995556 1.327407-1.848889 2.654815-1.848889 2.939259 0 0.948148 1.422222 0.616296 3.555555-0.853333 1.943704-1.327407 8.77037-8.343704 8.770371-9.007408 0-0.474074-20.100741-22.613333-25.268148-27.875555-4.171852-4.219259-7.917037-7.205926-9.102223-7.205926-0.331852 0-0.805926 0.521481-1.09037 1.185185z m8.817778 8.106667c1.374815 0.948148 1.327407 2.465185-0.18963 4.74074-2.939259 4.456296-11.140741 11.567407-13.274074 11.567408-1.46963 0-2.74963-2.37037-2.322963-4.314074 0.426667-1.848889 3.745185-6.305185 6.779259-9.007408 3.982222-3.602963 6.826667-4.551111 9.007408-2.986666z m-19.342223 16.213333c2.228148 1.801481 0.948148 4.788148-4.408888 10.24-5.499259 5.546667-9.386667 7.632593-11.614815 6.162963-0.900741-0.568889-1.042963-0.995556-0.805926-1.943704 1.042963-4.171852 11.946667-15.312593 14.980741-15.312592 0.426667 0 1.28 0.379259 1.848888 0.853333zM208.971852 846.459259c-11.472593 6.352593-34.512593 22.091852-37.30963 25.410371-2.085926 2.465185-1.46963 3.745185 1.659259 3.745185 0.948148 0 1.801481-0.474074 2.891852-1.754074 4.882963-5.451852 5.546667-5.973333 7.016297-5.688889 1.706667 0.379259 5.025185 2.512593 5.404444 3.508148 0.853333 2.180741-3.934815 8.248889-7.253333 9.14963-1.042963 0.284444-2.038519 0.663704-2.133334 0.90074-0.711111 1.137778 6.58963 8.106667 8.485926 8.106667 0.805926 0 1.659259-1.042963 1.65926-2.085926 0-1.327407 5.12-10.903704 12.705185-23.561481 9.671111-16.308148 11.33037-19.38963 10.192592-19.38963-0.237037 0-1.706667 0.758519-3.318518 1.659259z m-11.52 11.70963c0 1.09037-2.797037 5.499259-4.503704 7.253333-1.754074 1.706667-2.939259 2.085926-3.934815 1.090371-1.422222-1.422222 0.284444-3.934815 4.882963-6.968889 3.081481-2.085926 3.555556-2.275556 3.555556-1.374815zM220.444444 850.488889c-2.275556 0.900741-5.12 5.072593-13.321481 19.674074-8.722963 15.597037-13.558519 25.362963-12.562963 25.362963 0.805926 0 9.197037-5.783704 18.915556-12.98963 10.808889-8.011852 15.028148-10.808889 19.294814-12.942222 7.348148-3.65037 8.77037-2.038519 4.21926 4.693333-6.162963 9.007407-20.622222 26.737778-24.841482 30.340741-1.28 1.137778-2.37037 2.322963-2.37037 2.654815 0 1.327407 7.964444 8.675556 12.989629 12.088889 2.180741 1.46963 2.37037 1.374815 6.115556-2.038519 2.417778-2.228148 5.546667-6.257778 5.546667-7.205926 0-1.09037-2.465185-0.18963-4.266667 1.517037-3.982222 3.84-10.571852 2.797037-9.765926-1.564444 0.616296-3.365926 8.296296-14.08 10.097778-14.08 1.09037 0 0.521481 2.74963-1.46963 6.968889-0.900741 1.896296-1.46963 3.460741-1.232592 3.460741 0.616296 0 9.623704-11.33037 12.42074-15.597037 2.228148-3.460741 2.607407-4.693333 0.995556-3.271112-1.564444 1.374815-4.02963 2.37037-4.503704 1.896297-1.801481-1.801481 6.637037-12.894815 9.765926-12.894815 0.758519 0 1.46963 0.426667 1.896296 1.042963 1.374815 2.180741 1.327407 3.128889-0.094814 6.21037-0.805926 1.611852-1.564444 3.413333-1.754074 3.982223-0.805926 2.844444 3.555556-0.474074 6.731851-5.072593 2.56-3.745185 2.56-3.745185-1.848889-7.774815-6.921481-6.352593-17.256296-13.558519-19.437037-13.558518-0.379259 0-0.948148 0.805926-1.28 1.754074-1.28 3.555556-16.734815 17.682963-19.294814 17.682963-1.185185 0-0.711111-1.754074 1.611851-6.257778 2.654815-5.214815 7.016296-11.994074 9.765926-15.312593 2.37037-2.797037 3.602963-4.551111 3.602963-5.12 0-0.521481-2.37037-2.702222-3.792592-3.413333-0.711111-0.331852-1.564444-0.426667-2.133334-0.237037zM847.36 852.811852c-2.891852 0.900741-7.442963 3.792593-10.24 6.447407-1.659259 1.564444-2.986667 3.081481-2.986667 3.318519 0 0.284444 0.995556 0.900741 2.275556 1.374815 5.641481 2.37037 28.586667 28.254815 31.194074 35.223703 0.426667 1.28 0.995556 2.465185 1.232593 2.74963 0.616296 0.663704 8.296296-7.537778 10.477037-11.188148 1.706667-2.844444 1.801481-3.223704 1.564444-5.973334-1.042963-12.468148-24.462222-34.74963-33.517037-31.952592z m4.361481 6.305185c3.792593 2.512593 15.54963 14.174815 19.010371 18.868148 3.271111 4.408889 4.456296 6.731852 4.882963 9.528889 0.663704 4.456296-1.848889 3.887407-7.537778-1.801481-5.783704-5.736296-21.475556-24.082963-22.802963-26.690371-0.805926-1.611852-0.568889-1.896296 1.706667-1.896296 1.232593 0 2.56 0.568889 4.74074 1.991111zM821.048889 872.201481c-2.607407 2.038519-5.167407 5.451852-4.693333 6.210371 0.142222 0.284444 0.758519 0.521481 1.28 0.521481 2.038519 0 13.511111 13.131852 21.949629 25.125926 4.456296 6.352593 6.4 9.813333 6.4 11.425185 0 1.943704 0.995556 2.939259 2.370371 2.417778 3.697778-1.422222 15.17037-11.804444 15.17037-13.700741 0-1.327407-2.74963-5.641481-6.684445-10.477037-1.896296-2.37037-3.555556-4.266667-3.602962-4.171851-0.094815 0.047407 0.853333 2.512593 2.038518 5.499259 1.327407 3.271111 2.275556 6.4 2.417778 8.059259 0.237037 2.465185 0.142222 2.797037-0.853334 3.508148-2.038519 1.374815-3.555556 0.995556-6.447407-1.754074-3.365926-3.128889-8.912593-9.765926-14.838518-17.635555s-8.059259-11.282963-9.054815-14.222223c-0.995556-3.176296-2.228148-3.365926-5.451852-0.805926zM885.096296 871.822222c-0.805926 0.853333-0.758519 0.995556 0.426667 3.034074 1.374815 2.37037 4.693333 5.404444 6.305185 5.783704 1.564444 0.426667 2.512593-0.616296 2.512593-2.654815 0-4.503704-6.684444-9.007407-9.244445-6.162963zM258.322963 882.962963c0.237037 1.28 0 2.275556-1.422222 5.072593-3.887407 7.68-12.894815 21.143704-19.863704 29.629629-2.512593 3.081481-4.124444 4.598519-5.688889 5.357037-2.607407 1.28-2.37037 1.754074 1.754074 3.84 3.365926 1.706667 4.077037 1.706667 4.408889 0.047408 0.758519-3.508148 1.422222-5.072593 4.171852-9.718519 5.167407-8.580741 11.567407-16.734815 12.420741-15.881481 0.474074 0.474074-1.422222 10.287407-4.503704 23.466666-1.611852 6.731852-2.986667 12.657778-3.176296 13.17926l-0.284445 0.948148 1.090371-0.948148c1.327407-1.185185 5.404444-6.684444 14.222222-19.2 10.145185-14.364444 15.265185-20.574815 18.725926-22.565926 0.853333-0.474074 0.758519-0.616296-1.185185-2.038519-3.745185-2.702222-5.594074-2.512593-6.257778 0.663704-0.853333 4.077037-7.253333 14.601481-9.765926 16.071111-0.616296 0.379259-0.663704-0.047407-0.426667-3.318519 0.142222-2.085926 0.805926-6.115556 1.46963-8.96 1.896296-8.201481 2.038519-10.192593 0.805926-12.705185-1.137778-2.322963-3.934815-4.598519-5.688889-4.598518-0.995556 0-1.09037 0.142222-0.805926 1.659259zM805.072593 884.337778c-4.408889 1.848889-10.287407 6.637037-10.287408 8.438518 0 0.521481 1.28 2.228148 2.891852 3.84 7.727407 7.727407 23.419259 31.336296 24.32 36.456297 0.284444 1.422222 0.521481 1.801481 1.374815 1.801481 1.137778 0 6.826667-3.65037 7.205926-4.645926 0.474074-1.185185-1.137778-3.84-4.408889-7.253333-3.223704-3.413333-5.783704-6.779259-5.783704-7.585185 0-0.237037 0.568889-0.426667 1.28-0.426667 1.374815 0 4.314074 1.564444 7.964445 4.314074 3.508148 2.607407 7.158519 4.266667 9.955555 4.551111 2.085926 0.237037 2.654815 0.094815 3.508148-0.758518 0.521481-0.521481 0.995556-1.232593 0.995556-1.517037 0-0.948148-3.176296-3.602963-9.054815-7.585186-8.912593-6.020741-10.002963-7.348148-11.282963-13.795555-1.327407-6.4-9.434074-15.881481-14.317037-16.687408-1.137778-0.18963-2.417778 0.047407-4.361481 0.853334z m4.171851 6.4c4.882963 2.180741 9.291852 10.334815 8.106667 14.933333-0.711111 2.891852-3.365926 0.853333-8.722963-6.684444-3.84-5.404444-5.025185-7.537778-4.645926-8.485926 0.379259-0.948148 2.986667-0.805926 5.262222 0.237037zM780.041481 900.408889c-4.740741 3.223704-5.925926 10.619259-3.034074 19.626667 3.081481 9.765926 11.899259 20.811852 19.911112 24.983703 8.296296 4.266667 14.885926 0.948148 14.933333-7.585185 0-12.041481-11.52-31.478519-21.76-36.598518-3.887407-1.943704-7.585185-2.085926-10.050371-0.426667z m5.30963 4.02963c9.102222 5.831111 23.182222 30.198519 20.859259 36.219259-1.137778 3.034074-4.456296 2.133333-9.102222-2.465185-8.343704-8.201481-18.441481-28.871111-16.592592-33.848889 0.663704-1.659259 2.133333-1.611852 4.835555 0.094815zM764.397037 909.653333c-1.042963 0.900741-1.042963 0.948148-0.284444 2.038519 3.792593 5.214815 5.688889 9.244444 7.442963 15.881481 1.754074 6.684444 0.948148 7.585185-3.081482 3.318519-4.408889-4.645926-8.059259-10.808889-9.007407-15.122963-0.142222-0.711111-0.568889-1.422222-0.900741-1.564445-0.379259-0.142222-2.275556 0.379259-4.266667 1.185186-4.551111 1.801481-17.256296 8.059259-17.635555 8.628148-0.284444 0.521481 1.564444 3.034074 6.162963 8.296296 1.754074 2.085926 7.774815 9.386667 13.321481 16.308148 11.045926 13.748148 15.122963 18.441481 15.644445 17.92 0.521481-0.521481-0.995556-6.731852-3.745186-15.217778-1.422222-4.219259-2.702222-8.438519-2.891851-9.291851-0.284444-1.422222-0.237037-1.517037 0.568888-1.090371 0.474074 0.284444 4.171852 3.982222 8.248889 8.248889 6.874074 7.158519 10.998519 10.714074 10.24 8.817778-0.142222-0.379259-1.232593-4.124444-2.465185-8.248889-3.982222-13.558519-10.192593-31.715556-12.231111-35.745185-2.37037-4.740741-3.460741-5.641481-5.12-4.361482z m-12.942222 12.325926c5.736296 4.171852 11.851852 15.644444 9.576296 17.92-0.568889 0.568889-0.948148 0.474074-2.512592-0.711111-1.042963-0.758519-3.223704-2.939259-4.882963-4.882963-7.111111-8.296296-8.675556-17.019259-2.180741-12.325926zM304.924444 917.096296c-7.111111 6.305185-32.18963 33.611852-31.952592 34.844445 0.047407 0.379259 1.09037 1.232593 2.322963 1.896296 2.180741 1.137778 2.228148 1.137778 3.176296 0.284444 0.663704-0.616296 0.995556-1.517037 0.995556-2.607407 0.047407-5.925926 6.020741-9.955556 9.197037-6.21037 2.465185 2.986667 2.038519 7.442963-0.900741 9.671111-0.900741 0.711111-1.659259 1.659259-1.659259 2.133333 0 2.322963 4.503704 5.262222 19.437037 12.847408l11.282963 5.688888 1.611852-1.801481c2.085926-2.322963 5.12-7.774815 5.451851-9.813333 0.237037-1.46963 0.142222-1.659259-0.758518-1.65926-0.616296 0-1.943704 0.948148-3.223704 2.275556-2.939259 3.034074-4.314074 3.887407-6.4 3.887407-1.991111 0-3.223704-0.995556-3.223704-2.654814 0-4.124444 11.70963-28.634074 18.157038-38.020741 2.844444-4.171852 2.797037-4.408889-1.564445-6.637037-4.077037-2.085926-5.30963-1.896296-5.783704 0.711111-0.948148 5.783704-15.881481 35.792593-20.527407 41.291852-0.805926 0.995556-1.517037 1.374815-2.038519 1.185185-1.564444-0.568889-2.465185-1.706667-2.465185-3.176296 0-3.128889 4.977778-21.902222 10.24-38.637037 1.422222-4.503704 2.512593-8.296296 2.417778-8.438519-0.142222-0.094815-1.848889 1.232593-3.792593 2.939259z m-9.434074 16.877037c0.237037 3.602963-3.223704 7.395556-5.546666 6.115556-0.853333-0.426667-0.900741-0.663704-0.426667-2.038519 1.137778-3.318519 4.077037-6.779259 5.357037-6.352592 0.237037 0.094815 0.521481 1.137778 0.616296 2.275555zM342.376296 929.991111c-0.18963 0.142222-0.331852 1.327407-0.331852 2.607408 0 2.797037-1.943704 9.007407-6.21037 19.626666-3.887407 9.765926-7.917037 18.394074-9.908148 21.380741-2.607407 3.887407-1.706667 4.788148 9.481481 9.860741 4.788148 2.133333 6.968889 2.891852 7.395556 2.56 1.137778-0.948148 5.451852-10.05037 5.30963-11.235556-0.237037-1.943704-1.09037-1.706667-4.171852 1.09037-4.124444 3.792593-7.111111 4.882963-8.722963 3.271112-0.426667-0.379259-0.758519-1.28-0.758519-1.943704 0-1.611852 2.228148-8.059259 6.257778-18.157037 6.020741-14.980741 10.856296-23.22963 13.558519-23.22963 2.512593 0 0.379259-1.848889-5.167408-4.503703-3.223704-1.517037-5.973333-2.085926-6.731852-1.327408zM715.851852 932.788148c-15.597037 6.542222-34.133333 13.131852-48.877037 17.493333-10.571852 3.128889-12.98963 4.456296-12.98963 7.063704 0 1.896296 2.37037 6.826667 3.982222 8.296296 1.185185 1.09037 1.801481 0.805926 0.663704-0.331851-1.327407-1.327407 0.379259-8.343704 2.275556-8.96 0.853333-0.284444 1.991111 2.844444 6.068148 17.256296 5.025185 17.540741 6.637037 24.651852 6.305185 27.97037-0.142222 1.374815-0.094815 2.512593 0.094815 2.512593 0.758519 0 7.063704-2.275556 8.96-3.271111 2.322963-1.185185 2.939259-2.180741 1.848889-3.034074-2.844444-2.085926-13.605926-34.939259-13.605926-41.33926 0-1.185185 0.18963-2.133333 0.426666-2.133333 0.805926 0 3.223704 2.322963 5.783704 5.451852 1.374815 1.706667 2.56 2.986667 2.654815 2.891852 0.094815-0.094815-0.237037-1.896296-0.758519-3.982222-0.995556-3.745185-1.28-7.395556-0.711111-8.817778 0.284444-0.805926 1.943704-0.995556 2.844445-0.379259 0.284444 0.18963 1.374815 2.891852 2.465185 6.02074 1.042963 3.128889 3.413333 10.05037 5.30963 15.407408 4.361481 12.515556 6.826667 21.807407 6.447407 24.272592-0.284444 1.754074-0.237037 1.801481 1.09037 1.801482 3.081481 0 20.053333-6.21037 23.324445-8.580741 1.659259-1.185185 1.754074-1.754074 0.331852-1.943704-0.805926-0.094815-1.564444-1.042963-2.891852-3.697777-4.645926-9.244444-13.605926-35.365926-13.605926-39.585186 0-1.28 1.422222-2.607407 2.74963-2.607407s3.176296 2.512593 6.447407 8.96c6.58963 12.98963 11.851852 26.832593 12.847407 33.801481 0.142222 1.232593 0.474074 2.37037 0.758519 2.512593 0.474074 0.331852 11.425185-3.792593 15.217778-5.736296 1.706667-0.853333 2.512593-1.659259 3.034074-2.891852 0.711111-1.611852 0.663704-1.801481-0.616297-4.361482-1.801481-3.602963-2.654815-3.65037-3.934814-0.189629-1.185185 3.223704-2.607407 4.882963-4.077037 4.882963-1.517037 0-3.84-2.133333-5.12-4.693334-1.185185-2.275556-5.025185-11.52-5.025186-11.994074 0-0.142222 0.331852-0.426667 0.758519-0.568889 1.327407-0.521481 3.081481 1.09037 4.314074 3.887408 1.185185 2.702222 2.74963 4.835556 3.602963 4.835555 1.46963 0-2.133333-9.718519-5.546667-14.838518-1.801481-2.702222-3.318519-3.508148-3.887407-1.991111-0.18963 0.426667-0.711111 0.948148-1.185185 1.232592-0.758519 0.379259-1.09037 0.047407-2.512593-2.749629-1.943704-3.887407-4.551111-11.188148-4.551111-12.705185 0-2.939259 4.456296-2.417778 7.727407 0.853333 1.09037 1.09037 2.56 2.702222 3.271111 3.555555 1.611852 1.943704 2.465185 1.611852 2.038519-0.758518-0.616296-3.365926-5.499259-11.52-6.826667-11.425185-0.426667 0-3.508148 1.185185-6.921481 2.607407z m-21.380741 13.558519c1.564444 2.085926 4.314074 7.585185 5.499259 10.998518 1.327407 3.887407 1.232593 5.688889-0.284444 6.874074-2.844444 2.228148-5.262222 0.521481-7.727407-5.404444-2.939259-7.063704-3.555556-11.994074-1.611852-13.368889 1.374815-1.042963 2.844444-0.711111 4.124444 0.900741z m7.964445 23.561481c1.611852 1.28 3.84 5.973333 5.546666 11.851852 1.706667 5.783704 1.896296 8.343704 0.568889 9.007407-0.663704 0.379259-1.232593 0.237037-2.465185-0.568888-2.512593-1.706667-4.456296-4.693333-6.58963-10.050371-2.180741-5.594074-2.844444-9.291852-1.896296-10.429629 0.805926-0.995556 3.460741-0.900741 4.835556 0.189629zM261.499259 933.262222c-1.801481 1.28-4.788148 6.305185-4.788148 8.106667 0 2.085926 1.09037 2.512593 3.271111 1.232592 2.085926-1.232593 5.072593-4.693333 5.499259-6.4 0.237037-0.995556 0.047407-1.564444-0.90074-2.465185-1.422222-1.46963-1.611852-1.46963-3.081482-0.474074zM368.260741 939.235556c-2.417778 2.654815-4.788148 9.576296-6.542222 19.2-0.663704 3.555556-1.137778 6.494815-1.090371 6.589629 0.094815 0.047407 1.848889-3.034074 3.934815-6.826666 6.115556-11.235556 7.822222-16.402963 6.4-19.105186-0.663704-1.185185-1.517037-1.137778-2.702222 0.142223zM381.155556 944.308148c-1.943704 1.185185-7.016296 6.58963-8.011852 8.533333-1.706667 3.271111-1.46963 8.865185 0.948148 22.992593 1.327407 7.917037 1.422222 10.524444 0.379259 13.084445-0.853333 2.085926-1.848889 2.844444-3.65037 2.844444-2.797037 0-5.831111-6.4-4.598519-9.671111 0.616296-1.706667-0.047407-2.654815-1.327407-1.896296-2.228148 1.327407-4.077037 8.296296-2.939259 11.045925 1.28 3.128889 6.21037 6.020741 9.291851 5.451852 2.654815-0.474074 7.395556-5.214815 9.434074-9.386666 3.413333-6.921481 3.318519-14.032593-0.237037-24.035556-2.37037-6.542222-2.465185-8.817778-0.474074-11.946667 1.46963-2.322963 3.271111-3.223704 4.503704-2.228148 1.042963 0.853333 2.085926 4.077037 2.844445 8.96 0.379259 2.465185 0.758519 4.503704 0.853333 4.645926 0.237037 0.237037 3.602963-11.045926 3.982222-13.274074 0.237037-1.46963 0.142222-1.706667-0.474074-1.469629-0.900741 0.331852-2.228148-0.331852-5.357037-2.702223-2.74963-2.085926-3.176296-2.180741-5.167407-0.948148zM405.143704 952.13037c-0.379259 0.474074-0.426667 0.995556 0 1.991111 1.659259 4.314074-4.977778 34.797037-9.576297 43.89926-0.758519 1.517037-1.374815 3.128889-1.374814 3.65037 0 1.232593 1.422222 2.133333 4.835555 3.128889 3.508148 0.995556 4.503704 0.521481 4.835556-2.275556 0.805926-7.253333 1.327407-10.097778 2.133333-11.946666 1.706667-3.887407 2.465185-2.654815 3.84 6.352592 1.042963 6.779259 1.611852 8.865185 2.986667 10.334815 1.28 1.422222 4.314074 1.517037 5.072592 0.18963 0.663704-1.28 0.568889-5.025185-0.237037-10.951111-0.379259-2.74963-0.711111-6.731852-0.711111-8.865185v-3.934815l2.322963-2.512593c4.693333-5.262222 7.300741-13.842963 5.736296-19.247407-0.616296-2.228148-2.180741-4.408889-4.029629-5.594074-1.09037-0.758519-13.985185-4.882963-15.170371-4.882963-0.047407 0-0.379259 0.284444-0.663703 0.663703z m11.899259 7.016297c0.853333 1.611852 0.663704 8.628148-0.331852 12.657777-0.995556 4.02963-3.413333 7.300741-5.167407 7.063704-0.900741-0.142222-0.995556-0.426667-0.948148-3.934815 0-4.219259 1.422222-10.287407 3.223703-14.269629 1.28-2.74963 2.275556-3.223704 3.223704-1.517037zM635.496296 958.814815c-2.74963 0.379259-13.605926 2.038519-24.177777 3.745185-10.571852 1.706667-23.656296 3.745185-29.108149 4.551111-5.451852 0.805926-10.714074 1.801481-11.757037 2.228148-1.848889 0.758519-1.896296 0.805926-1.517037 2.465185 0.758519 3.176296 0.474074 13.795556-0.426666 16.734815-0.426667 1.46963-1.042963 2.844444-1.28 2.986667-1.517037 0.948148-4.171852-8.296296-4.693334-16.118519-0.284444-4.645926-0.284444-4.740741-1.706666-5.451851-1.137778-0.568889-3.318519-0.711111-10.42963-0.711112-10.192593 0-11.614815 0.237037-11.614815 1.801482 0 1.09037 7.253333 30.340741 9.718519 39.205926 2.417778 8.865185 2.654815 9.481481 3.128889 9.481481 0.805926 0 1.848889-3.176296 3.318518-9.86074 1.327407-6.305185 2.512593-9.623704 3.602963-9.908149 0.805926-0.284444 2.417778 4.503704 3.460741 10.524445 1.659259 9.528889 3.365926 12.373333 4.93037 8.201481 0.900741-2.465185 1.611852-6.58963 4.077037-23.988148 2.417778-17.208889 4.077037-23.798519 5.925926-23.798518 2.56 0 4.503704 14.127407 4.788148 34.322963 0.142222 10.05037 0.331852 13.368889 0.758519 13.653333 0.331852 0.18963 2.56 0.379259 4.93037 0.379259 5.30963 0 5.878519-0.426667 4.977778-3.46074-1.943704-6.58963-5.262222-31.715556-5.262222-39.727408 0-4.835556 0.616296-6.826667 2.133333-6.826667 1.137778 0 2.085926 2.37037 2.085926 5.357037 0.047407 2.797037 1.185185 5.30963 2.37037 5.30963 1.374815 0 1.564444-0.568889 1.65926-4.740741 0.094815-3.792593 1.137778-6.447407 2.322963-6.02074 2.465185 0.805926 6.968889 31.383704 6.257777 42.05037-0.426667 5.783704-0.284444 5.925926 5.49926 5.925926 4.93037 0 6.020741-0.616296 5.167407-2.844445-1.848889-4.788148-8.438519-42.382222-7.822222-44.373333 0.805926-2.465185 5.12 0.521481 6.684444 4.598519 0.426667 1.137778 0.948148 2.085926 1.137778 2.085926 0.18963 0 0.474074-1.991111 0.616296-4.408889 0.379259-5.357037 0.711111-6.58963 1.706667-6.4 2.085926 0.379259 8.96 29.392593 9.813333 41.576296 0.18963 2.228148 0.521481 4.456296 0.758519 4.882963 0.616296 1.232593 3.934815 1.09037 13.511111-0.568889 8.201481-1.422222 11.52-2.37037 11.52-3.318518 0-0.284444-0.568889-1.327407-1.232593-2.370371-3.792593-5.688889-10.145185-38.447407-8.628148-44.468148 0.805926-3.223704-0.094815-3.555556-7.205926-2.702222z m-3.223703 4.077037c1.327407 0.711111 2.56 3.745185 3.46074 8.675555 1.517037 8.201481 0.995556 10.808889-2.417777 11.472593-3.365926 0.616296-3.982222-0.474074-5.641482-10.761481-1.28-7.964444-0.900741-9.908148 1.943704-9.908149 0.900741 0 2.085926 0.237037 2.654815 0.521482z m-80.260741 10.192592c2.607407 3.271111 4.314074 11.851852 3.460741 17.01926-0.474074 3.034074-1.564444 5.451852-2.417778 5.451852-0.995556 0-3.318519-8.96-4.598519-17.730371-0.805926-5.404444-0.805926-5.641481 0-6.257778 1.042963-0.758519 2.133333-0.284444 3.555556 1.517037z m85.76 15.834075c1.422222 2.133333 2.37037 5.404444 3.318518 11.662222 0.948148 6.447407 0.616296 7.774815-1.991111 7.774815-2.654815 0-3.934815-1.517037-5.262222-6.257778-2.512593-9.291852-2.56-13.842963-0.094815-14.933334 1.422222-0.663704 2.74963-0.094815 4.02963 1.754075zM435.01037 960.521481c-0.995556 1.611852-1.943704 5.357037-2.891851 11.093334-2.085926 12.8-4.788148 25.362963-6.826667 31.762963-1.327407 4.171852-1.564444 6.494815-0.616296 7.253333 0.805926 0.663704 7.395556 2.085926 8.343703 1.754074 0.663704-0.18963 0.758519-1.042963 0.805926-5.546666 0.047407-11.899259 5.925926-36.598519 10.192593-42.998519 1.09037-1.611852 1.801481-3.081481 1.659259-3.271111-0.18963-0.142222-1.659259-0.426667-3.271111-0.616296-1.611852-0.142222-3.745185-0.474074-4.693333-0.663704-1.611852-0.331852-1.801481-0.237037-2.702223 1.232592zM459.377778 962.654815c-0.237037 0.047407-1.09037 0.237037-1.801482 0.426666-4.361481 0.948148-11.282963 11.614815-14.127407 21.807408-1.422222 4.977778-1.517037 14.506667-0.237037 19.2 1.848889 6.731852 4.788148 11.093333 8.296296 12.278518 2.37037 0.805926 6.21037 0.616296 8.391111-0.379259 2.417778-1.09037 3.508148-2.844444 5.357037-8.533333 0.805926-2.417778 2.133333-5.878519 2.986667-7.727408 1.46963-3.223704 1.46963-3.365926 0.616296-3.982222-0.474074-0.379259-1.564444-0.663704-2.417778-0.663704-0.805926 0-2.939259-0.426667-4.693333-0.995555-3.982222-1.232593-4.408889-0.948148-3.65037 2.465185 2.275556 9.813333-2.465185 20.148148-6.684445 14.506667-2.038519-2.654815-2.37037-4.693333-2.085926-11.188148 0.616296-12.231111 4.077037-27.06963 7.253334-30.862223 1.564444-1.801481 3.887407-2.275556 5.783703-1.185185 1.801481 1.09037 2.702222 2.702222 3.413334 6.162963 0.805926 3.84 1.848889 6.352593 2.891852 6.874074 1.232593 0.663704 1.848889-0.711111 1.848889-4.124444 0.047407-1.517037 0.379259-4.266667 0.758518-6.068148 1.28-5.878519 1.374815-5.641481-2.275556-6.020741-1.754074-0.142222-4.314074-0.663704-5.688888-1.09037-3.365926-1.042963-3.413333-1.042963-3.934815-0.900741zM476.017778 967.253333c-0.142222 0.568889-0.379259 7.016296-0.521482 14.317037-0.474074 22.091852-1.327407 29.771852-3.602963 32.948149-2.228148 3.034074-1.848889 3.697778 2.702223 4.645925 3.65037 0.805926 19.38963 2.133333 20.717037 1.801482 1.896296-0.474074 2.275556-2.512593 2.749629-14.26963 0.948148-23.324444 1.801481-32.331852 3.271111-34.085926 1.517037-1.848889 1.943704-0.521481 2.322963 6.826667l0.284445 5.925926 0.90074-2.607407c2.37037-7.063704 4.882963-10.619259 5.973334-8.533334 1.327407 2.465185 1.801481 18.868148 0.900741 30.388148-0.426667 5.925926-0.853333 8.343704-2.370371 13.653334-0.805926 2.939259-0.094815 3.365926 5.831111 3.365926h4.645926v-2.512593c0-1.327407-0.237037-10.382222-0.521481-20.005926-0.521481-17.256296-0.284444-23.798519 0.90074-24.983704 1.374815-1.374815 3.982222 1.659259 5.594075 6.494815 1.185185 3.365926 1.611852 1.896296 1.611851-5.357037V969.007407h-6.968888c-10.05037 0-37.262222-1.659259-42.903704-2.607407-1.09037-0.18963-1.374815 0-1.517037 0.853333z m15.075555 3.128889c2.607407 5.025185 1.659259 16.45037-1.659259 19.2-1.801481 1.517037-2.986667 1.564444-4.456296 0.047408-0.995556-0.995556-1.185185-1.564444-1.185185-4.21926 0-5.688889 1.991111-13.179259 4.124444-15.549629 1.137778-1.232593 2.37037-1.042963 3.176296 0.521481z m-1.706666 25.979259c1.991111 3.745185 0.142222 17.256296-2.654815 19.674075-1.46963 1.327407-2.797037 1.46963-3.84 0.426666-0.900741-0.900741-0.995556-1.564444-0.995556-6.115555 0-5.30963 0.568889-9.860741 1.46963-12.088889 0.995556-2.37037 5.12-3.65037 6.020741-1.896297z" p-id="5886" fill="#ffffff"></path></svg>